<svg width="29" height="42" viewBox="0 0 29 42" fill="none" xmlns="http://www.w3.org/2000/svg">
<g id="Vector">
<path id="Vector_2" fill-rule="evenodd" clip-rule="evenodd" d="M14.7192 2.82362C8.16849 2.82362 2.8578 8.13431 2.8578 14.6851H0.701172C0.701172 6.94278 6.97695 0.666992 14.7192 0.666992C22.4615 0.666992 28.7373 6.94278 28.7373 14.6851C28.7373 19.5386 26.2701 23.8151 22.5262 26.3308C19.9706 28.0454 17.9542 30.3271 17.9542 32.9193V33.0164C17.9542 35.3043 17.0453 37.4985 15.4275 39.1162C13.8098 40.734 11.6156 41.6429 9.32768 41.6429C7.03979 41.6429 4.8456 40.734 3.22782 39.1162C1.61003 37.4985 0.701172 35.3043 0.701172 33.0164V32.0912C0.70128 29.3629 1.64194 26.718 3.36461 24.6023L2.6885 23.9273C2.503 23.7415 2.39167 23.4944 2.37539 23.2323C2.35911 22.9702 2.439 22.7113 2.60008 22.5039L7.36191 16.3802C6.99866 14.8036 7.1516 13.152 7.79818 11.6689C8.44475 10.1858 9.55075 8.94973 10.9531 8.14288C12.3555 7.33603 13.9799 7.00113 15.5871 7.18753C17.1942 7.37394 18.6989 8.07181 19.8793 9.17823C21.0598 10.2847 21.8535 11.7411 22.1434 13.3328C22.4333 14.9245 22.2042 16.5673 21.4897 18.0188C20.7752 19.4704 19.6132 20.654 18.175 21.3952C16.7369 22.1363 15.0986 22.3957 13.5018 22.1351L7.1635 27.0663C6.95608 27.2276 6.69686 27.3077 6.43456 27.2914C6.17225 27.2751 5.92493 27.1636 5.73905 26.9778L4.89797 26.1368C3.57505 27.8401 2.85721 29.9356 2.8578 32.0923V33.0164C2.8578 34.7323 3.53944 36.3779 4.75278 37.5913C5.96612 38.8046 7.61176 39.4863 9.32768 39.4863C11.0436 39.4863 12.6892 38.8046 13.9026 37.5913C15.1159 36.3779 15.7976 34.7323 15.7976 33.0164V32.9204C15.7976 29.1927 18.6314 26.347 21.3228 24.5398C22.9418 23.4559 24.2685 21.9896 25.1856 20.2707C26.1027 18.5518 26.5819 16.6333 26.5807 14.6851C26.5807 8.13431 21.27 2.82362 14.7192 2.82362ZM11.0713 21.2951C9.94243 20.6718 8.99206 19.7697 8.31083 18.6748L4.88718 23.0754L6.59092 24.7792L11.0713 21.2951ZM14.7192 9.2935C13.2893 9.2935 11.9179 9.86154 10.9068 10.8727C9.89572 11.8838 9.32768 13.2551 9.32768 14.6851C9.32768 16.115 9.89572 17.4864 10.9068 18.4975C11.9179 19.5086 13.2893 20.0766 14.7192 20.0766C16.1492 20.0766 17.5205 19.5086 18.5317 18.4975C19.5428 17.4864 20.1108 16.115 20.1108 14.6851C20.1108 13.2551 19.5428 11.8838 18.5317 10.8727C17.5205 9.86154 16.1492 9.2935 14.7192 9.2935Z" fill="black"/>
</g>
</svg>
