<svg width="38" height="36" viewBox="0 0 38 36" fill="none" xmlns="http://www.w3.org/2000/svg">
<path fill-rule="evenodd" clip-rule="evenodd" d="M11.6146 8.9871C12.695 8.9871 13.7312 8.55792 14.4951 7.79396C15.2591 7.03001 15.6883 5.99387 15.6883 4.91347C15.6883 3.83308 15.2591 2.79693 14.4951 2.03298C13.7312 1.26903 12.695 0.839844 11.6146 0.839844C10.5342 0.839844 9.49811 1.26903 8.73415 2.03298C7.9702 2.79693 7.54102 3.83308 7.54102 4.91347C7.54102 5.99387 7.9702 7.03001 8.73415 7.79396C9.49811 8.55792 10.5342 8.9871 11.6146 8.9871ZM11.6146 6.95029C12.1548 6.95029 12.6729 6.73569 13.0549 6.35372C13.4369 5.97174 13.6515 5.45367 13.6515 4.91347C13.6515 4.37328 13.4369 3.8552 13.0549 3.47323C12.6729 3.09125 12.1548 2.87666 11.6146 2.87666C11.0744 2.87666 10.5564 3.09125 10.1744 3.47323C9.79242 3.8552 9.57783 4.37328 9.57783 4.91347C9.57783 5.45367 9.79242 5.97174 10.1744 6.35372C10.5564 6.73569 11.0744 6.95029 11.6146 6.95029Z" fill="black"/>
<path d="M15.6884 32.4108V28.2659L17.7252 31.1755V32.4108C17.7256 33.0673 17.5145 33.7064 17.1232 34.2335C16.7319 34.7607 16.1812 35.1477 15.5528 35.3374C14.9243 35.5271 14.2514 35.5093 13.6339 35.2867C13.0163 35.0641 12.4868 34.6484 12.124 34.1014C11.7615 34.6491 11.2321 35.0655 10.6143 35.2885C9.99649 35.5116 9.32324 35.5296 8.69442 35.3398C8.0656 35.1501 7.51472 34.7626 7.12351 34.235C6.7323 33.7073 6.52162 33.0676 6.52272 32.4108V20.8437C6.01562 21.1167 5.44171 21.2407 4.86716 21.2016C4.29261 21.1625 3.74082 20.9618 3.27541 20.6226C2.81 20.2834 2.44992 19.8196 2.23669 19.2847C2.02345 18.7497 1.96576 18.1654 2.07024 17.5991C2.30855 16.3088 2.54889 15.1814 2.8534 14.2567C3.15179 13.3452 3.60702 12.3207 4.45739 11.4988C5.38617 10.6037 6.45347 10.2605 7.36698 10.1209C8.11958 10.0048 8.95875 10.0059 9.65126 10.0059H9.68996L12.5008 12.0427H9.68996C8.95162 12.0427 8.2591 12.0447 7.67453 12.1343C7.02275 12.2341 6.40153 12.4551 5.87195 12.9654C5.36886 13.4511 5.04501 14.1111 4.78837 14.8922C4.53071 15.6774 4.30972 16.6897 4.07345 17.9678C4.02443 18.2334 4.08294 18.5076 4.23611 18.7301C4.38928 18.9526 4.62457 19.1052 4.89021 19.1542C5.15585 19.2032 5.43009 19.1447 5.65259 18.9915C5.87509 18.8384 6.02763 18.6031 6.07665 18.3374C6.24978 17.3985 6.40458 16.6673 6.55734 16.0939L8.55953 16.3556V32.4108C8.55671 32.678 8.65901 32.9356 8.84436 33.128C9.02972 33.3205 9.28328 33.4324 9.55038 33.4396C9.81748 33.4468 10.0767 33.3488 10.2722 33.1666C10.4677 32.9844 10.5837 32.7327 10.5953 32.4658L11.1442 22.2267H13.1047L13.6516 32.4658C13.6552 32.5995 13.6851 32.7313 13.7396 32.8534C13.7941 32.9756 13.8722 33.0859 13.9693 33.1779C14.0664 33.2699 14.1807 33.3419 14.3056 33.3897C14.4306 33.4376 14.5637 33.4603 14.6975 33.4567C14.8312 33.4531 14.9629 33.4232 15.0851 33.3687C15.2073 33.3142 15.3175 33.2361 15.4095 33.139C15.5016 33.0419 15.5735 32.9276 15.6214 32.8026C15.6692 32.6777 15.692 32.5445 15.6884 32.4108Z" fill="black"/>
<path d="M12.5006 12.0427H13.6891L13.6962 12.0437H13.7033C14.7156 12.0641 15.6251 12.4144 16.3838 12.9878L17.4562 11.233C16.3478 10.4355 15.0169 10.0063 13.6514 10.0059H9.6898L12.5006 12.0427ZM2.95813 21.2083C2.28288 21.2083 1.63529 21.4766 1.15782 21.954C0.68035 22.4315 0.412109 23.0791 0.412109 23.7544V24.5721C0.412109 24.8422 0.519406 25.1013 0.710394 25.2923C0.901382 25.4832 1.16042 25.5905 1.43052 25.5905C1.70061 25.5905 1.95965 25.4832 2.15064 25.2923C2.34163 25.1013 2.44892 24.8422 2.44892 24.5721V23.7544C2.44892 23.6193 2.50257 23.4898 2.59807 23.3943C2.69356 23.2988 2.82308 23.2452 2.95813 23.2452C3.09318 23.2452 3.22269 23.2988 3.31819 23.3943C3.41368 23.4898 3.46733 23.6193 3.46733 23.7544V33.4292C3.46733 33.6993 3.57463 33.9584 3.76561 34.1493C3.9566 34.3403 4.21564 34.4476 4.48574 34.4476C4.75584 34.4476 5.01487 34.3403 5.20586 34.1493C5.39685 33.9584 5.50414 33.6993 5.50414 33.4292V23.7544C5.50414 23.0791 5.2359 22.4315 4.75843 21.954C4.28096 21.4766 3.63337 21.2083 2.95813 21.2083ZM31.9827 23.7544C31.9827 23.0791 32.251 22.4315 32.7284 21.954C33.2059 21.4766 33.8535 21.2083 34.5287 21.2083C35.204 21.2083 35.8516 21.4766 36.3291 21.954C36.8065 22.4315 37.0748 23.0791 37.0748 23.7544V33.4292C37.0748 33.6993 36.9675 33.9584 36.7765 34.1493C36.5855 34.3403 36.3265 34.4476 36.0564 34.4476C35.7863 34.4476 35.5272 34.3403 35.3362 34.1493C35.1452 33.9584 35.0379 33.6993 35.0379 33.4292V23.7544C35.0379 23.6193 34.9843 23.4898 34.8888 23.3943C34.7933 23.2988 34.6638 23.2452 34.5287 23.2452C34.3937 23.2452 34.2642 23.2988 34.1687 23.3943C34.0732 23.4898 34.0195 23.6193 34.0195 23.7544V24.5721C34.0195 24.8422 33.9122 25.1013 33.7213 25.2923C33.5303 25.4832 33.2712 25.5905 33.0011 25.5905C32.731 25.5905 32.472 25.4832 32.281 25.2923C32.09 25.1013 31.9827 24.8422 31.9827 24.5721V23.7544Z" fill="black"/>
<path fill-rule="evenodd" clip-rule="evenodd" d="M24.8544 8.54918C27.1041 8.54918 28.928 6.824 28.928 4.69451C28.928 2.56604 27.1041 0.839844 24.8544 0.839844C22.6047 0.839844 20.7808 2.56604 20.7808 4.69451C20.7808 6.82298 22.6037 8.5502 24.8544 8.5502M24.8544 6.62338C25.9787 6.62338 26.8912 5.76079 26.8912 4.69553C26.8912 3.6313 25.9787 2.76871 24.8544 2.76871C23.7301 2.76871 22.8176 3.6313 22.8176 4.69553C22.8176 5.76079 23.7291 6.62338 24.8544 6.62338ZM26.3606 10.477C26.7985 10.477 27.5623 10.5229 28.3638 10.9048C29.7183 11.5504 30.4923 12.6075 30.9516 13.5424L31.0361 13.7135C31.196 14.0374 31.2398 14.126 31.2632 14.2197C31.2714 14.2553 31.2775 14.291 31.2846 14.3419C31.2989 14.4305 31.3203 14.5639 31.3773 14.8165C31.5565 15.5976 31.5606 15.6179 31.6624 16.1119C31.7592 16.5834 31.9496 17.5081 32.4874 20.0409C32.8194 21.6062 31.747 23.1307 30.0931 23.4444C29.8283 23.4953 29.5635 23.5116 29.3069 23.4963L30.311 27.9162C30.4628 28.7442 30.0218 29.6475 29.0787 29.9663C28.154 30.2779 26.4788 30.7158 24.3452 30.7158C22.2106 30.7158 20.5363 30.2779 19.6116 29.9663C19.1924 29.8324 18.8361 29.5506 18.6094 29.1733C18.3827 28.7961 18.3009 28.3493 18.3794 27.9162L18.9293 24.9292C18.6661 24.9438 18.4021 24.9264 18.1431 24.8773C16.4882 24.5626 15.4168 23.0391 15.7488 21.4728C16.2855 18.941 16.476 18.0173 16.5737 17.5448C16.6756 17.0508 16.6796 17.0295 16.8579 16.2483C17.0463 15.4255 17.2988 14.4356 17.7388 13.5424C18.1971 12.6086 18.9711 11.5504 20.3266 10.9048C21.128 10.5229 21.8918 10.477 22.3298 10.477H26.3606ZM26.3606 12.4049H22.3287C22.0395 12.4049 21.6383 12.4375 21.2411 12.6269C20.4335 13.0118 19.9273 13.6575 19.5841 14.3561C19.2481 15.0395 19.0322 15.8471 18.8478 16.6557C18.6716 17.4236 18.6696 17.4358 18.5739 17.9002L18.5718 17.9124C18.3004 19.2267 18.0247 20.5401 17.7449 21.8526C17.6339 22.3741 17.9913 22.8822 18.5433 22.9871C18.7979 23.036 19.0515 22.9892 19.2613 22.8721L20.4691 16.5844L22.4734 16.9297L21.8348 20.2497L21.8593 20.2232L20.3968 28.1841C21.1841 28.4407 22.5793 28.788 24.3442 28.788C26.1091 28.788 27.5043 28.4417 28.2915 28.1841L26.8281 20.2201L26.8495 20.2313L26.215 16.9297L28.2192 16.5844L29.0034 21.4565C29.2071 21.5614 29.4474 21.6011 29.6908 21.5553C30.2418 21.4504 30.5992 20.9422 30.4882 20.4208C29.9505 17.8849 29.7601 16.9561 29.6613 16.4795L29.6592 16.4693C29.5635 16.0039 29.5615 15.9917 29.3863 15.2238C29.3109 14.8939 29.3048 14.8022 29.3038 14.7635C29.3038 14.7533 29.3031 14.7455 29.3018 14.7401C29.2987 14.7279 29.2926 14.7177 29.2753 14.6871C29.2509 14.6413 29.202 14.5527 29.1042 14.3551C28.761 13.6575 28.2549 13.0108 27.4473 12.6259C27.1051 12.473 26.7333 12.3975 26.3586 12.4049" fill="black"/>
<path d="M19.7617 34.019V31.6787C21.0907 31.8518 22.3149 31.9598 23.5115 32.0015L22.7548 34.4284C22.5389 35.1179 21.822 35.5527 21.0704 35.4499C20.3188 35.348 19.7617 34.737 19.7617 34.019ZM25.9434 34.4579L25.1236 32.0199C26.395 31.9999 27.6645 31.9156 28.9274 31.7673V34.02C28.9274 34.7329 28.3774 35.3389 27.634 35.4478C26.8906 35.5578 26.1726 35.1372 25.9434 34.4579Z" fill="black"/>
</svg>
