<svg width="65" height="57" viewBox="0 0 65 57" fill="none" xmlns="http://www.w3.org/2000/svg">
<path d="M57.4974 56.9347H8.2713C4.55358 56.9347 1.53015 53.8455 1.53015 50.047V31.7406C1.53015 29.2235 3.52338 27.1641 6.00933 27.1641H59.7594C62.223 27.1641 64.2386 29.2006 64.2386 31.7406V50.047C64.2162 53.8455 61.2151 56.9347 57.4974 56.9347Z" fill="#07C1FF"/>
<path d="M9.0136 11.8312C8.30036 13.0033 7.84918 13.0637 7.01955 12.7331C6.56832 12.6179 6.16076 12.3875 5.12731 12.3875C2.71723 12.3875 0.629761 14.4915 0.629761 17.332C0.629761 20.1725 2.4928 22.1263 6.16076 22.1263H14.9085C18.5037 22.1263 21.0655 19.0325 21.0655 15.0927C21.0655 11.1529 17.5576 8.66016 14.4573 8.66016C11.357 8.66016 9.72683 10.659 9.0136 11.8312Z" fill="#C1E2FF"/>
<path d="M44.5803 5.36322H43.04V1.34546C43.8872 1.34546 44.5803 1.94812 44.5803 2.68471V5.36322Z" fill="#FFCE7C"/>
<path d="M50.7412 1.34546H52.2814V7.3721L51.5113 8.04173L50.7412 7.3721V1.34546ZM50.7412 13.3987L51.5113 12.7291L52.2814 13.3987V20.095H50.7412V13.3987Z" fill="#FCD53F"/>
<path d="M46.8907 13.3989L48.0458 12.7292L49.201 13.3989L46.3978 18.8831C46.2284 19.2112 45.851 19.4255 45.4351 19.4255C44.6727 19.4255 44.1644 18.7425 44.4725 18.1331L46.8907 13.3989ZM57.6723 16.0774H57.2788L55.8471 18.8831C55.6161 19.3184 55.0231 19.5527 54.4609 19.3519C53.9141 19.1577 53.6908 18.5751 53.9295 18.1064L54.9689 16.0729C53.8975 16.0075 53.0516 15.231 53.0516 14.2828V13.3989L55.3619 12.7292L57.6723 13.3989V16.0774Z" fill="#D3883E"/>
<path d="M42.6549 4.01718C42.0157 4.01718 41.4998 3.56853 41.4998 3.01274C41.4998 2.45695 42.0157 2.0083 42.6549 2.0083C42.7005 2.0083 42.7453 2.01058 42.7895 2.015H45.9646C46.0159 2.01057 46.0679 2.0083 46.1205 2.0083C46.9796 2.0083 47.6761 2.61389 47.6761 3.36094C47.6761 3.60075 47.6043 3.82599 47.4784 4.02129C47.5432 4.01416 47.6091 4.01048 47.6761 4.01048C48.5352 4.01048 49.2317 4.61608 49.2317 5.36313C49.2317 5.60158 49.1608 5.82562 49.0362 6.02015C49.0903 6.0152 49.1453 6.01266 49.2009 6.01266C50.0601 6.01266 50.7566 6.61826 50.7566 7.36531C50.7566 8.11235 50.0601 8.71794 49.2009 8.71794C48.3418 8.71794 47.6453 8.11235 47.6453 7.36531C47.6453 7.12686 47.7163 6.90282 47.8408 6.70828C47.7867 6.71324 47.7317 6.71578 47.6761 6.71578C46.8169 6.71578 46.1205 6.11017 46.1205 5.36313C46.1205 5.12332 46.1922 4.89808 46.3181 4.70277C46.2534 4.70991 46.1874 4.71359 46.1205 4.71359C45.2613 4.71359 44.5648 4.10799 44.5648 3.36094C44.5648 3.14153 44.6249 2.93432 44.7315 2.75108L44.5802 2.68463L43.5143 3.68485C43.303 3.88903 42.9966 4.01718 42.6549 4.01718ZM57.6722 8.71127C57.6722 7.97386 58.3576 7.37564 59.2047 7.37204V7.37202L59.209 7.37202L59.2124 7.37202C59.2237 7.37202 59.2349 7.37212 59.2461 7.37233C60.5053 7.39147 61.5151 8.28135 61.5151 9.3809V11.5651C61.9797 11.7957 62.2929 12.2306 62.2929 12.729C62.2929 13.4687 61.6033 14.0683 60.7527 14.0683C59.902 14.0683 59.2124 13.4687 59.2124 12.729H59.2047V11.3697H58.4423V9.87136C57.9819 9.63979 57.6722 9.20698 57.6722 8.71127Z" fill="#6D4534"/>
<path d="M46.752 3.91675L43.8101 4.0038V7.37205V7.4256V9.58182C43.8101 10.2361 43.9991 10.8518 44.3322 11.3898H42.2699C41.184 11.3898 40.4601 12.3608 40.8991 13.2246L42.4162 16.1977C42.6395 16.6397 43.2325 16.8741 43.8024 16.6665C44.3492 16.4723 44.5725 15.8964 44.3338 15.4277L43.2967 13.3987H47.9687V13.3935C48.0452 13.3969 48.1223 13.3987 48.1998 13.3987H54.584V14.2826C54.584 15.2736 55.5082 16.0772 56.6479 16.0772H57.9931L56.956 18.1062C56.7172 18.5749 56.9406 19.1575 57.4874 19.3517C58.0495 19.5526 58.6425 19.3182 58.8736 18.8829L60.3907 15.9098C60.8043 15.0897 60.1857 14.1804 59.2047 14.0779V13.3987L59.1818 13.392H59.2124V11.1822C59.2124 9.07289 57.2486 7.36534 54.8228 7.36534H48.4276L46.752 3.91675Z" fill="#F3AD61"/>
<path d="M43.764 7.36531C43.764 7.77485 43.4251 8.03491 43.2126 8.38275C42.9502 8.57123 42.6138 8.68446 42.2469 8.68446C41.409 8.68446 40.7297 8.09386 40.7297 7.36531C40.7297 7.16522 40.781 6.97554 40.8726 6.80565C40.9029 6.74953 41.0253 6.51814 41.0378 6.49474C41.0591 6.51324 41.9784 6.04614 42.2469 6.04614C43.0848 6.04614 43.764 6.63675 43.764 7.36531Z" fill="#D3883E"/>
<path d="M44.5803 2.68492V1.33887C45.4274 1.33887 46.1205 1.94153 46.1205 2.67812V3.17215C46.6202 3.54427 46.9368 4.09688 46.9368 4.71379C46.9368 5.24064 46.7059 5.72059 46.3272 6.08127L46.3361 6.08651L46.2609 6.14187C46.1649 6.22613 46.0605 6.30311 45.9488 6.37176L43.2171 8.38332L41.0377 6.49498L42.5009 3.82986L42.502 3.83051C42.8766 3.15808 43.6654 2.69264 44.5803 2.68492Z" fill="#FFCE7C"/>
<path d="M43.0401 5.68434C43.2442 5.68434 43.4097 5.54044 43.4097 5.36292C43.4097 5.18541 43.2442 5.0415 43.0401 5.0415C42.8359 5.0415 42.6704 5.18541 42.6704 5.36292C42.6704 5.54044 42.8359 5.68434 43.0401 5.68434Z" fill="#D3883E"/>
<path d="M53.7524 10.7202H49.2703C48.8083 10.7202 48.4309 10.3921 48.4309 9.99031V7.37207H54.5841V9.99031C54.5841 10.3921 54.2145 10.7202 53.7524 10.7202Z" fill="#F8312F"/>
<path d="M34.853 15.2776H26.7246C26.2747 15.2776 25.9748 14.762 26.1847 14.3269L30.2489 5.59374C30.4739 5.11035 31.1038 5.11035 31.3287 5.59374L35.3929 14.3269C35.6028 14.762 35.3029 15.2776 34.853 15.2776ZM25.2812 34.2344H12.2412C11.5132 34.2344 11.0384 33.5623 11.3708 32.9882L17.8908 18.5941C18.2548 17.964 19.2676 17.964 19.6316 18.5941L26.1516 32.9882C26.484 33.5623 26.0092 34.2344 25.2812 34.2344ZM36.2364 34.2344H49.2764C50.0044 34.2344 50.4792 33.5623 50.1468 32.9882L43.6268 18.5941C43.2628 17.964 42.25 17.964 41.886 18.5941L35.366 32.9882C35.0336 33.5623 35.5084 34.2344 36.2364 34.2344Z" fill="#FFE54A"/>
<path d="M35.8443 13.2874H35.1738C34.6745 13.2874 34.2465 13.7204 34.2608 14.2618C34.2751 14.8186 33.8614 15.2671 33.3478 15.2671H32.9198C32.4206 15.2671 31.9926 14.834 32.0069 14.2927C32.0211 13.7359 31.6074 13.2874 31.0939 13.2874H30.4234C29.9241 13.2874 29.4961 13.7204 29.5104 14.2618C29.5247 14.8186 29.111 15.2671 28.5974 15.2671H28.1695C27.6702 15.2671 27.2422 14.834 27.2565 14.2927C27.2707 13.7359 26.857 13.2874 26.3435 13.2874H25.673C25.1737 13.2874 24.76 13.7359 24.76 14.2772V15.2671V20.4176C24.76 20.9589 25.0106 21.3438 25.5099 21.3438H26.2597C25.5036 21.3438 24.76 21.3438 24.76 22.9551V40.6793H36.7573V22.9551C36.7576 21.3438 36.014 21.3438 35.2579 21.3438H36.0078C36.5071 21.3438 36.7573 20.9589 36.7573 20.4176V15.2671V14.2772C36.7715 13.7204 36.3578 13.2874 35.8443 13.2874Z" fill="#998EA4"/>
<path d="M51.7545 32.9414V33.5694L51.7395 50.3472H35.1938L30.7088 47.6122L26.2238 50.3472H9.76294V33.5694V32.9414V31.9766C9.76294 31.4405 10.2277 31.0117 10.7524 31.0117H11.457C11.9817 31.0117 12.4015 31.4405 12.4015 31.9766C12.4015 32.5126 12.8212 32.9414 13.3459 32.9414H13.7807C14.3054 32.9414 14.7252 32.5126 14.7252 31.9766C14.7252 31.4405 15.1449 31.0117 15.6696 31.0117H16.3593C16.884 31.0117 17.3037 31.4405 17.3037 31.9766C17.3037 32.5126 17.7235 32.9414 18.2482 32.9414H18.698C19.2227 32.9414 19.6424 32.5126 19.6424 31.9766C19.6424 31.4405 20.0622 31.0117 20.5869 31.0117H20.6019H21.2765H21.2915C21.8162 31.0117 22.236 31.4405 22.236 31.9766C22.236 32.5126 22.6558 32.9414 23.1805 32.9414H23.6452C24.1699 32.9414 24.5897 32.5126 24.5897 31.9766C24.5897 31.4405 25.0094 31.0117 25.5342 31.0117H26.2238C26.7485 31.0117 27.1682 31.4405 27.1682 31.9766C27.1682 32.5126 27.588 32.9414 28.1127 32.9414H28.5475C29.0722 32.9414 29.4919 32.5126 29.4919 31.9766C29.4919 31.4405 29.9117 31.0117 30.4364 31.0117H30.4514H31.171H31.186C31.7107 31.0117 32.1305 31.4405 32.1305 31.9766C32.1305 32.5126 32.5502 32.9414 33.0749 32.9414H33.5097C34.0344 32.9414 34.4542 32.5126 34.4542 31.9766C34.4542 31.4405 34.8739 31.0117 35.3987 31.0117H36.0883C36.613 31.0117 37.0327 31.4405 37.0327 31.9766C37.0327 32.5126 37.4525 32.9414 37.9772 32.9414H38.412C38.9367 32.9414 39.3564 32.5126 39.3564 31.9766C39.3564 31.4405 39.7762 31.0117 40.3009 31.0117H40.3159H40.9905H41.0055C41.5302 31.0117 41.95 31.4405 41.95 31.9766C41.95 32.5126 42.3698 32.9414 42.8945 32.9414H43.3292C43.8539 32.9414 44.2737 32.5126 44.2737 31.9766C44.2737 31.4405 44.6935 31.0117 45.2182 31.0117H45.9078C46.4325 31.0117 46.8523 31.4405 46.8523 31.9766C46.8523 32.5126 47.272 32.9414 47.7967 32.9414H48.2315C48.7562 32.9414 49.176 32.5126 49.176 31.9766C49.176 31.4405 49.5957 31.0117 50.1204 31.0117H50.8101C51.3348 31.0117 51.7545 31.4405 51.7545 31.9766V32.9414Z" fill="#FFFCE7"/>
<path d="M29.259 24.5666H32.2395H32.2584V22.9553C32.2584 22.0579 31.575 21.344 30.7587 21.344C29.9235 21.344 29.259 22.0783 29.259 22.9553V24.5666ZM26.2596 50.3472H35.2439V45.1415C35.2439 42.2727 33.2482 40.6795 30.7587 40.6795C28.2832 40.6795 26.2596 42.2566 26.2596 45.1415V50.3472Z" fill="#5235A6"/>
<path d="M18.0114 13.7803V16.8163C18.0114 17.1624 18.3295 17.3984 18.6324 17.2883L22.1553 15.4877C22.2978 15.4149 22.2979 15.1971 22.1556 15.1241L18.6173 13.3083C18.3143 13.2139 18.0114 13.4499 18.0114 13.7803ZM42.0066 13.7803V16.8163C42.0066 17.1624 42.3247 17.3984 42.6276 17.2883L46.1505 15.4877C46.293 15.4149 46.2931 15.1971 46.1508 15.1241L42.6125 13.3083C42.3095 13.2139 42.0066 13.4499 42.0066 13.7803Z" fill="#26C9FC"/>
</svg>
