<svg width="31" height="38" viewBox="0 0 31 38" fill="none" xmlns="http://www.w3.org/2000/svg">
<path fill-rule="evenodd" clip-rule="evenodd" d="M19.0908 9.50618C20.3111 9.50618 21.4814 9.04878 22.3443 8.23459C23.2072 7.42041 23.692 6.31614 23.692 5.16471C23.692 4.01328 23.2072 2.90901 22.3443 2.09483C21.4814 1.28065 20.3111 0.823242 19.0908 0.823242C17.8704 0.823242 16.7001 1.28065 15.8372 2.09483C14.9743 2.90901 14.4895 4.01328 14.4895 5.16471C14.4895 6.31614 14.9743 7.42041 15.8372 8.23459C16.7001 9.04878 17.8704 9.50618 19.0908 9.50618ZM19.0908 7.46937C19.7386 7.46937 20.3598 7.22656 20.8179 6.79435C21.276 6.36214 21.5333 5.77594 21.5333 5.16471C21.5333 4.55348 21.276 3.96728 20.8179 3.53507C20.3598 3.10287 19.7386 2.86006 19.0908 2.86006C18.443 2.86006 17.8217 3.10287 17.3636 3.53507C16.9056 3.96728 16.6482 4.55348 16.6482 5.16471C16.6482 5.77594 16.9056 6.36214 17.3636 6.79435C17.8217 7.22656 18.443 7.46937 19.0908 7.46937ZM15.3141 8.55804C14.0438 8.38491 12.932 8.91958 12.1268 9.5846C11.3396 10.2472 10.7266 11.0735 10.3362 11.9982C10.1462 12.4545 9.91203 13.4036 9.68321 14.4943C9.60118 14.8874 9.51699 15.3121 9.43388 15.7572V12.1327L5.93465 9.6569L4.63944 11.2864L7.2752 13.1511V18.8277C5.34457 19.5278 3.68415 20.7635 2.51283 22.3719C1.34151 23.9804 0.714289 25.886 0.713867 27.8375C0.713867 30.3964 1.79121 32.8505 3.7089 34.6599C5.62659 36.4694 8.22754 37.4859 10.9396 37.4859C16.2251 37.4859 20.5738 33.7025 21.1091 28.8498L21.1696 28.8447L21.3423 29.1268C21.6553 29.6421 22.0859 30.3469 22.5565 31.1086C23.4912 32.621 24.603 34.3889 25.2517 35.3147C26.2598 36.7506 28.0212 36.8036 29.2128 36.2333C29.8514 35.9352 30.3632 35.4405 30.6635 34.8309C30.9765 34.174 31.0024 33.4051 30.6527 32.6454C30.195 31.6494 29.1135 29.2541 28.1443 27.1053L26.8707 24.2782L26.6267 23.7384C27.0941 23.7751 27.4643 23.7995 27.6823 23.8087C28.3807 23.8352 28.9549 23.5062 29.3348 23.1559C29.7255 22.7964 30.0224 22.3218 30.1778 21.8208C30.3332 21.3217 30.3721 20.7148 30.1217 20.1343C29.8583 19.5212 29.3251 19.0578 28.589 18.8154C27.5938 18.4885 25.8421 18.0465 24.3795 17.6952C23.6316 17.5154 22.8825 17.3399 22.1324 17.1687C21.403 15.8825 20.639 14.6142 19.8409 13.3649C19.1577 12.3068 18.4054 11.2151 17.7027 10.3627C17.383 9.96365 17.0293 9.59001 16.645 9.24547C16.3374 8.98068 15.8722 8.63341 15.3131 8.55804M21.1059 26.8079L22.3698 26.7213L22.7066 27.2794L22.8426 27.5035C23.3646 28.3652 23.8906 29.2247 24.4206 30.0821C25.3617 31.6066 26.4411 33.3226 27.0509 34.1913C27.3024 34.5488 27.7557 34.6466 28.235 34.4164C28.4338 34.3291 28.5955 34.1809 28.6937 33.9958C28.7552 33.8665 28.7822 33.6964 28.6721 33.4561C28.2091 32.4519 27.1243 30.0495 26.1572 27.9027C25.6715 26.8293 25.2171 25.817 24.8825 25.0746L24.3267 23.8392L24.3245 23.8372L24.3062 23.8179C24.29 23.8036 24.1961 23.7181 23.8992 23.7181C23.5085 23.7181 22.9095 23.6407 22.3115 23.549C21.4904 23.4201 20.6721 23.2758 19.8571 23.1162C20.5356 24.2532 20.9606 25.5102 21.1059 26.8079ZM16.3546 19.6526L15.9639 18.1046L18.0416 17.5689H18.0449L18.047 17.575L18.0557 17.5995C18.1069 17.7534 18.1609 17.9065 18.2176 18.0588C18.3277 18.3643 18.482 18.7716 18.6633 19.1892C18.8458 19.6118 19.0433 20.0223 19.2365 20.343C19.3343 20.5033 19.4178 20.6234 19.4869 20.7036L19.5365 20.7586C19.5743 20.7708 19.6639 20.7993 19.828 20.837C20.0633 20.893 20.373 20.9521 20.7443 21.0132C21.4847 21.1354 22.4151 21.2576 23.3671 21.3676C25.2398 21.5835 27.12 21.7434 27.7277 21.7709C27.7645 21.7508 27.7979 21.7258 27.827 21.6965C27.9403 21.5926 28.0493 21.4266 28.1054 21.2464C28.1616 21.0641 28.1421 20.948 28.1205 20.8981C28.1119 20.8777 28.0806 20.8054 27.8777 20.7382C26.9851 20.4439 25.3229 20.0233 23.8453 19.6678C23.0217 19.4701 22.1967 19.2776 21.3703 19.0904L21.2117 19.0548L20.6763 18.9346L20.4486 18.5211L20.4356 18.4997L20.3989 18.4325L20.2543 18.1749C19.537 16.9054 18.7837 15.6544 17.9952 14.423C17.3282 13.3883 16.6245 12.373 15.9984 11.6122C15.7525 11.3034 15.4803 11.0139 15.1846 10.7466C15.1106 10.6795 15.03 10.6191 14.9439 10.5663C14.5338 10.5317 14.0556 10.6967 13.5483 11.1163C13.0211 11.5659 12.6092 12.1227 12.3438 12.7447C12.238 12.9973 12.0362 13.758 11.7998 14.8874C11.5731 15.9845 11.3733 17.0864 11.2008 18.1922C13.0267 18.2324 14.8073 18.7369 16.3546 19.6526ZM10.9137 20.2259H10.9385C12.9153 20.2262 14.8232 20.9112 16.3001 22.151C17.777 23.3908 18.7201 25.099 18.9504 26.9515L15.5408 27.1827L15.5192 27.1847H15.5171L15.4955 27.1867L15.3865 27.1939C14.7501 27.2248 14.1125 27.1623 13.4965 27.0085C12.4193 26.7356 11.299 26.1225 10.7572 24.6998C10.728 24.6224 10.6816 24.4024 10.6633 23.9869C10.6479 23.5064 10.6565 23.0256 10.6892 22.5459C10.7323 21.8462 10.8111 21.0539 10.9137 20.2259ZM8.7064 20.5213C8.63085 21.1904 8.57041 21.8371 8.53371 22.4298C8.49681 22.9766 8.48744 23.5248 8.50565 24.0725C8.52723 24.5307 8.5812 25.0074 8.72583 25.3903C9.57851 27.6257 11.4091 28.5881 12.9353 28.9751C13.8493 29.2038 14.798 29.2837 15.7405 29.2113L18.9116 28.9965C18.5946 30.8861 17.5352 32.5939 15.9442 33.78C14.3532 34.9661 12.3473 35.5436 10.3255 35.3975C8.30376 35.2514 6.4144 34.3925 5.03338 32.9916C3.65236 31.5908 2.88092 29.7507 2.87255 27.8375C2.87319 26.186 3.44261 24.5795 4.49502 23.2599C5.54743 21.9403 7.02475 20.9792 8.7064 20.5213Z" fill="black"/>
</svg>
