<svg width="49" height="48" viewBox="0 0 49 48" fill="none" xmlns="http://www.w3.org/2000/svg">
<path d="M28.9765 28.6584C30.1391 27.4576 30.7831 25.8478 30.7696 24.1764C30.7561 22.5049 30.0861 20.9058 28.9042 19.7239C27.7223 18.542 26.1231 17.872 24.4517 17.8585C22.7803 17.845 21.1705 18.489 19.9697 19.6516M13.7661 13.4481L35.18 34.862M9.06109 18.6276L28.8143 38.3809M1.27734 24.155C3.79988 24.155 5.69244 26.1319 7.66934 28.1089L12.8212 33.9348C14.3151 35.528 16.1199 36.7978 18.124 37.6659C20.1282 38.534 22.289 38.9819 24.4731 38.9819C26.6571 38.9819 28.818 38.534 30.8221 37.6659C32.8262 36.7978 34.631 35.528 36.1249 33.9348L41.2768 28.1089C43.2537 26.1319 44.6191 24.155 47.1416 24.155C44.6191 24.155 43.2537 22.1781 41.2768 20.2012L36.1249 14.3753C34.631 12.7821 32.8262 11.5122 30.8221 10.6441C28.818 9.77602 26.6571 9.32812 24.4731 9.32812C22.289 9.32812 20.1282 9.77602 18.124 10.6441C16.1199 11.5122 14.3151 12.7821 12.8212 14.3753L7.66934 20.2012C5.69244 22.1781 3.79988 24.155 1.27734 24.155Z" stroke="black" stroke-width="2.02184"/>
</svg>
