<svg width="28" height="33" viewBox="0 0 28 33" fill="none" xmlns="http://www.w3.org/2000/svg">
<g id="Group/Variant3">
<path id="Vector" d="M5.56351 12.8932C5.56351 11.0173 5.94013 9.21827 6.62403 7.6239M9.06052 4.00955C10.7962 2.30286 12.9765 1.3883 15.2173 1.42696C17.4581 1.46561 19.6157 2.45501 21.3101 4.22087C23.0045 5.98673 24.1269 8.41579 24.4798 11.0802C24.8326 13.7446 24.3932 16.4735 23.2389 18.7861C22.9694 19.2188 22.6821 19.6351 22.3783 20.0335M19.5978 23.2419C18.8316 24.3568 18.2243 25.6168 17.8003 26.9708C17.3784 27.9307 16.7854 28.7665 16.0638 29.4182C15.3422 30.0698 14.5098 30.5214 13.6262 30.7404C12.7427 30.9594 11.8298 30.9404 10.9531 30.685C10.0763 30.4295 9.2573 29.9437 8.55473 29.2625" stroke="black" stroke-width="2.63158" stroke-linecap="round" stroke-linejoin="round"/>
<path id="Vector_2" d="M12.9328 8.65999C13.7145 8.07636 14.6371 7.82797 15.5509 7.95514C16.4646 8.08232 17.3159 8.5776 17.9664 9.36057C18.6169 10.1435 19.0284 11.1682 19.1343 12.2683C19.2402 13.3684 19.0341 14.4792 18.5495 15.4205M1.48453 1.43457L25.9582 30.8994" stroke="black" stroke-width="2.63158" stroke-linecap="round" stroke-linejoin="round"/>
</g>
</svg>
