<svg width="71" height="71" viewBox="0 0 71 71" fill="none" xmlns="http://www.w3.org/2000/svg">
<path d="M59.2338 66.1395H11.2507C7.6269 66.1395 4.67981 63.1946 4.67981 59.5736V42.1227C4.67981 39.7232 6.62271 37.76 9.04588 37.76H61.4387C63.8401 37.76 65.8048 39.7014 65.8048 42.1227V59.5736C65.783 63.1946 62.8577 66.1395 59.2338 66.1395Z" fill="#608842"/>
<rect x="48.3533" y="33.0657" width="6.54709" height="9.04947" rx="0.604128" fill="#8C5543"/>
<path d="M58.0867 11.2054C57.8779 7.77012 55.0258 5.04858 51.538 5.04858C47.9525 5.04858 45.0387 7.92472 44.978 11.4957C44.9413 11.7581 44.8735 12.0014 44.6305 12.119C41.6395 12.7298 39.3893 15.3757 39.3893 18.5471C39.3893 19.3729 39.5418 20.1631 39.8203 20.8909C39.8238 20.9122 39.8308 20.9359 39.842 20.9623C39.9742 21.2749 39.8866 21.6503 39.6702 21.9151C38.2943 23.1178 37.4253 24.8857 37.4253 26.8566C37.4253 30.4437 40.3039 33.3584 43.8771 33.4167L43.952 33.4175C43.9634 33.4175 43.9748 33.4176 43.9862 33.4176C43.9976 33.4176 44.009 33.4175 44.0205 33.4175H59.3353C59.3467 33.4175 59.3581 33.4176 59.3695 33.4176C59.3809 33.4176 59.3924 33.4175 59.4038 33.4175H59.4207C63.0207 33.39 65.9305 30.4631 65.9305 26.8566C65.9305 24.8383 65.0191 23.0329 63.5855 21.8294C63.2153 21.444 63.3048 20.9261 63.4128 20.5499C63.4308 20.4938 63.448 20.4374 63.4645 20.3806L63.4744 20.3492C63.4944 20.3093 63.5045 20.2697 63.5059 20.2313C63.6483 19.6938 63.7241 19.1294 63.7241 18.5471C63.7241 15.449 61.5767 12.8525 58.6892 12.1646C58.3077 12.0396 58.1116 11.5049 58.0867 11.2054Z" fill="#96C34A"/>
<path d="M10.2486 54.0172C9.08021 56.9734 10.7976 57.4521 12.1068 57.4521H56.6313C58.224 57.4521 58.9191 56.1566 58.1554 54.2091C57.7443 53.161 51.2452 36.9552 48.2311 28.9917H21.2065C20.1276 28.9917 19.8707 29.7367 19.434 30.7899C18.9973 31.8432 11.417 51.061 10.2486 54.0172Z" fill="#F9C23C"/>
<path d="M28.7742 53.0144C27.7764 50.5987 23.7195 40.4981 21.8158 35.7498V57.4565H33.1068C30.656 57.4565 30.0215 56.0342 28.7742 53.0144Z" fill="#433B6B"/>
<path d="M21.8385 35.7539C21.304 34.4362 20.2032 31.7118 20.0762 31.3562C20.0646 31.3236 20.0523 31.2898 20.0397 31.2551C19.8804 30.8165 19.6639 30.2207 19.901 29.7703V29.7612C19.7553 30.0121 19.6307 30.3143 19.4914 30.652C19.4726 30.6976 19.4534 30.744 19.434 30.7909C19.0894 31.6219 14.2986 43.759 11.7178 50.2969C11.0274 52.0459 10.4952 53.3943 10.2486 54.0182C9.08021 56.9744 10.7976 57.4531 12.1068 57.4531H21.1416V38.0505L21.8385 35.7539Z" fill="#ED9200"/>
<path d="M21.8707 57.449V35.7349C19.2604 42.9621 14.4071 56.0198 14.2092 56.5451C14.0114 57.0704 13.7288 57.3666 13.6123 57.449H21.8707Z" fill="#FF6723"/>
<path d="M36.0579 35.5896C34.2547 35.5896 33.6759 36.6326 34.2376 38.1697C34.4346 38.8496 34.982 40.5673 35.5258 42.0335C36.2057 43.8661 37.1911 44.3354 38.8169 44.3354H42.5414C44.3445 44.3354 44.6006 43.068 44.2163 42.0335C43.8321 40.9989 43.1522 39.1366 42.6201 37.7473C42.0881 36.358 41.0535 35.5896 39.4277 35.5896H36.0579Z" fill="#FF822D"/>
</svg>
