<svg width="38" height="34" viewBox="0 0 38 34" fill="none" xmlns="http://www.w3.org/2000/svg">
<path d="M33.3872 22.0732L33.276 22.4901L33.6584 22.6899C34.5502 23.1561 35.3021 23.851 35.8369 24.7035C36.3717 25.556 36.6702 26.5354 36.7018 27.5412C36.7333 28.5471 36.4969 29.5432 36.0166 30.4276C35.5363 31.3119 34.8295 32.0526 33.9686 32.5738C33.1078 33.095 32.1238 33.3779 31.1175 33.3934C30.1113 33.409 29.119 33.1567 28.2424 32.6625C27.3658 32.1682 26.6364 31.4497 26.129 30.5806C25.6217 29.7117 25.3545 28.7235 25.3548 27.7173C25.3551 27.5248 25.3646 27.3354 25.3832 27.1489L25.4426 26.5561H24.8468H16.7064H16.1099L16.17 27.1496C16.1888 27.3357 16.1983 27.5247 16.1983 27.7166C16.1984 28.7765 15.9016 29.8152 15.3416 30.7151C14.7816 31.615 13.9808 32.34 13.0299 32.8082C12.079 33.2763 11.016 33.4687 9.96135 33.3638C8.90668 33.2588 7.9025 32.8605 7.06254 32.2141C6.22259 31.5677 5.58044 30.6991 5.20884 29.7065C4.83724 28.7139 4.75104 27.637 4.96001 26.5979C5.16898 25.5589 5.66476 24.5991 6.39119 23.8273C7.11763 23.0555 8.04567 22.5026 9.07021 22.2312L9.57286 22.098L9.45797 21.5909L6.31407 7.71269L6.21892 7.29265H5.78824H1.12021V5.88536H5.78707C6.2316 5.8873 6.66226 6.04041 7.00826 6.31954C7.35449 6.59887 7.59532 6.98775 7.69109 7.42218L7.69108 7.42218L7.69177 7.42523L9.07781 13.5435L9.17296 13.9636H9.60364H18.6017H19.1408V13.4244V0.914157H21.0873C28.2616 0.914157 34.2215 6.43651 34.8403 13.4479V16.6239L33.3872 22.0732ZM21.0873 2.32145H20.5481V2.8606V13.4244V13.9636H21.0873H32.829H33.4277L33.3652 13.3681C32.7138 7.16845 27.457 2.32145 21.0873 2.32145ZM10.5235 31.9842L10.5241 31.9842C11.6554 31.9829 12.7399 31.5329 13.5398 30.733C14.3398 29.9331 14.7897 28.8485 14.791 27.7173V27.7166C14.791 26.8726 14.5407 26.0475 14.0718 25.3457C13.6029 24.6439 12.9364 24.0969 12.1566 23.7739C11.3768 23.4509 10.5187 23.3664 9.69091 23.5311C8.86308 23.6957 8.10268 24.1022 7.50585 24.699C6.90902 25.2958 6.50257 26.0562 6.33791 26.8841C6.17324 27.7119 6.25775 28.57 6.58076 29.3498C6.90376 30.1296 7.45074 30.7961 8.15254 31.265C8.85434 31.7339 9.67943 31.9842 10.5235 31.9842ZM25.6517 25.1488H25.9629L26.1186 24.8793C26.6165 24.0171 27.3325 23.3011 28.1945 22.803C29.0562 22.3052 30.0336 22.0426 31.0287 22.0416C31.1777 22.0422 31.3265 22.0486 31.4749 22.0608L31.9239 22.0977L32.04 21.6624L33.4148 16.5072L33.4331 16.439V16.3683V15.91V15.3709H32.8939H10.1668H9.49183L9.64095 16.0291L10.9236 21.691L11.0048 22.0495L11.3682 22.1049C12.2106 22.2333 13.0134 22.5493 13.7172 23.0295C14.4211 23.5098 15.0081 24.1421 15.4348 24.8796L15.5905 25.1488H15.9015H25.6517ZM35.2973 27.7173V27.7166C35.2973 26.8726 35.047 26.0475 34.578 25.3457C34.1091 24.6439 33.4426 24.0969 32.6628 23.7739C31.883 23.4509 31.025 23.3664 30.1971 23.5311C29.3693 23.6957 28.6089 24.1022 28.0121 24.699C27.4152 25.2958 27.0088 26.0562 26.8441 26.8841C26.6795 27.7119 26.764 28.57 27.087 29.3498C27.41 30.1296 27.957 30.7961 28.6588 31.265C29.3606 31.7339 30.1857 31.9842 31.0297 31.9842L31.0303 31.9842C32.1616 31.9829 33.2461 31.5329 34.0461 30.733C34.846 29.9331 35.296 28.8485 35.2973 27.7173Z" fill="black" stroke="black" stroke-width="1.07831"/>
</svg>
